<?xml version="1.0" encoding="utf-8" standalone="no"?>
<!DOCTYPE svg PUBLIC "-//W3C//DTD SVG 1.1//EN"
  "http://www.w3.org/Graphics/SVG/1.1/DTD/svg11.dtd">
<svg xmlns:xlink="http://www.w3.org/1999/xlink" width="400.468125pt" height="270.626562pt" viewBox="0 0 400.468125 270.626562" xmlns="http://www.w3.org/2000/svg" version="1.1">
 <metadata>
  <rdf:RDF xmlns:dc="http://purl.org/dc/elements/1.1/" xmlns:cc="http://creativecommons.org/ns#" xmlns:rdf="http://www.w3.org/1999/02/22-rdf-syntax-ns#">
   <cc:Work>
    <dc:type rdf:resource="http://purl.org/dc/dcmitype/StillImage"/>
    <dc:date>2023-02-06T16:22:53.153218</dc:date>
    <dc:format>image/svg+xml</dc:format>
    <dc:creator>
     <cc:Agent>
      <dc:title>Matplotlib v3.6.3, https://matplotlib.org/</dc:title>
     </cc:Agent>
    </dc:creator>
   </cc:Work>
  </rdf:RDF>
 </metadata>
 <defs>
  <style type="text/css">*{stroke-linejoin: round; stroke-linecap: butt}</style>
 </defs>
 <g id="figure_1">
  <g id="patch_1">
   <path d="M 0 270.626562 
L 400.468125 270.626562 
L 400.468125 0 
L 0 0 
L 0 270.626562 
z
" style="fill: none"/>
  </g>
  <g id="axes_1">
   <g id="patch_2">
    <path d="M 58.468125 229.199062 
L 393.268125 229.199062 
L 393.268125 11.759062 
L 58.468125 11.759062 
z
" style="fill: #ffffff"/>
   </g>
   <g id="PolyCollection_1">
    <defs>
     <path id="mba54785941" d="M 143.078595 -88.203787 
L 141.257655 -88.203787 
L 140.9544 -89.6021 
L 140.574428 -91.000413 
L 140.106692 -92.398726 
L 139.541097 -93.797039 
L 138.869344 -95.195352 
L 138.0858 -96.593666 
L 137.188338 -97.991979 
L 136.179021 -99.390292 
L 135.06454 -100.788605 
L 133.856304 -102.186918 
L 132.5701 -103.585231 
L 131.225315 -104.983545 
L 129.843703 -106.381858 
L 128.447805 -107.780171 
L 127.059138 -109.178484 
L 125.696335 -110.576797 
L 124.373453 -111.97511 
L 123.09864 -113.373423 
L 121.873358 -114.771737 
L 120.692274 -116.17005 
L 119.543868 -117.568363 
L 118.411712 -118.966676 
L 117.276289 -120.364989 
L 116.117121 -121.763302 
L 114.914979 -123.161616 
L 113.653875 -124.559929 
L 112.322609 -125.958242 
L 110.915702 -127.356555 
L 109.433612 -128.754868 
L 107.88227 -130.153181 
L 106.27205 -131.551495 
L 104.616366 -132.949808 
L 102.930149 -134.348121 
L 101.228431 -135.746434 
L 99.525256 -137.144747 
L 97.833039 -138.54306 
L 96.162414 -139.941373 
L 94.52253 -141.339687 
L 92.921651 -142.738 
L 91.367905 -144.136313 
L 89.869992 -145.534626 
L 88.437703 -146.932939 
L 87.082166 -148.331252 
L 85.815793 -149.729566 
L 84.651979 -151.127879 
L 83.604656 -152.526192 
L 82.687825 -153.924505 
L 81.915164 -155.322818 
L 81.299786 -156.721131 
L 80.854148 -158.119445 
L 80.590062 -159.517758 
L 80.518712 -160.916071 
L 80.650561 -162.314384 
L 80.995062 -163.712697 
L 81.560123 -165.11101 
L 82.351342 -166.509323 
L 83.371114 -167.907637 
L 84.617738 -169.30595 
L 86.084704 -170.704263 
L 87.760317 -172.102576 
L 89.627756 -173.500889 
L 91.665616 -174.899202 
L 93.848874 -176.297516 
L 96.150146 -177.695829 
L 98.541073 -179.094142 
L 100.993614 -180.492455 
L 103.481107 -181.890768 
L 105.978959 -183.289081 
L 108.464947 -184.687395 
L 110.919175 -186.085708 
L 113.323784 -187.484021 
L 115.662586 -188.882334 
L 117.920751 -190.280647 
L 120.084667 -191.67896 
L 122.142043 -193.077274 
L 124.082222 -194.475587 
L 125.896666 -195.8739 
L 127.579468 -197.272213 
L 129.127789 -198.670526 
L 130.542086 -200.068839 
L 131.826067 -201.467152 
L 132.986344 -202.865466 
L 134.031817 -204.263779 
L 134.972874 -205.662092 
L 135.820504 -207.060405 
L 136.585455 -208.458718 
L 137.277535 -209.857031 
L 137.905119 -211.255345 
L 138.474916 -212.653658 
L 138.991975 -214.051971 
L 139.459889 -215.450284 
L 139.881146 -216.848597 
L 140.25754 -218.24691 
L 140.590576 -219.645224 
L 140.881821 -221.043537 
L 141.133151 -222.44185 
L 141.34689 -223.840163 
L 141.525842 -225.238476 
L 141.673229 -226.636789 
L 142.663021 -226.636789 
L 142.663021 -226.636789 
L 142.810408 -225.238476 
L 142.98936 -223.840163 
L 143.203099 -222.44185 
L 143.454429 -221.043537 
L 143.745674 -219.645224 
L 144.07871 -218.24691 
L 144.455104 -216.848597 
L 144.876361 -215.450284 
L 145.344275 -214.051971 
L 145.861334 -212.653658 
L 146.431131 -211.255345 
L 147.058715 -209.857031 
L 147.750795 -208.458718 
L 148.515746 -207.060405 
L 149.363376 -205.662092 
L 150.304433 -204.263779 
L 151.349906 -202.865466 
L 152.510183 -201.467152 
L 153.794164 -200.068839 
L 155.208461 -198.670526 
L 156.756782 -197.272213 
L 158.439584 -195.8739 
L 160.254028 -194.475587 
L 162.194207 -193.077274 
L 164.251583 -191.67896 
L 166.415499 -190.280647 
L 168.673664 -188.882334 
L 171.012466 -187.484021 
L 173.417075 -186.085708 
L 175.871303 -184.687395 
L 178.357291 -183.289081 
L 180.855143 -181.890768 
L 183.342636 -180.492455 
L 185.795177 -179.094142 
L 188.186104 -177.695829 
L 190.487376 -176.297516 
L 192.670634 -174.899202 
L 194.708494 -173.500889 
L 196.575933 -172.102576 
L 198.251546 -170.704263 
L 199.718512 -169.30595 
L 200.965136 -167.907637 
L 201.984908 -166.509323 
L 202.776127 -165.11101 
L 203.341188 -163.712697 
L 203.685689 -162.314384 
L 203.817538 -160.916071 
L 203.746188 -159.517758 
L 203.482102 -158.119445 
L 203.036464 -156.721131 
L 202.421086 -155.322818 
L 201.648425 -153.924505 
L 200.731594 -152.526192 
L 199.684271 -151.127879 
L 198.520457 -149.729566 
L 197.254084 -148.331252 
L 195.898547 -146.932939 
L 194.466258 -145.534626 
L 192.968345 -144.136313 
L 191.414599 -142.738 
L 189.81372 -141.339687 
L 188.173836 -139.941373 
L 186.503211 -138.54306 
L 184.810994 -137.144747 
L 183.107819 -135.746434 
L 181.406101 -134.348121 
L 179.719884 -132.949808 
L 178.0642 -131.551495 
L 176.45398 -130.153181 
L 174.902638 -128.754868 
L 173.420548 -127.356555 
L 172.013641 -125.958242 
L 170.682375 -124.559929 
L 169.421271 -123.161616 
L 168.219129 -121.763302 
L 167.059961 -120.364989 
L 165.924538 -118.966676 
L 164.792382 -117.568363 
L 163.643976 -116.17005 
L 162.462892 -114.771737 
L 161.23761 -113.373423 
L 159.962797 -111.97511 
L 158.639915 -110.576797 
L 157.277112 -109.178484 
L 155.888445 -107.780171 
L 154.492547 -106.381858 
L 153.110935 -104.983545 
L 151.76615 -103.585231 
L 150.479946 -102.186918 
L 149.27171 -100.788605 
L 148.157229 -99.390292 
L 147.147912 -97.991979 
L 146.25045 -96.593666 
L 145.466906 -95.195352 
L 144.795153 -93.797039 
L 144.229558 -92.398726 
L 143.761822 -91.000413 
L 143.38185 -89.6021 
L 143.078595 -88.203787 
z
" style="stroke: #595959; stroke-width: 1.5"/>
    </defs>
    <g clip-path="url(#pc9f66982aa)">
     <use xlink:href="#mba54785941" x="0" y="270.626562" style="fill: #4595e4; stroke: #595959; stroke-width: 1.5"/>
    </g>
   </g>
   <g id="PolyCollection_2">
    <defs>
     <path id="mbeaa573f3f" d="M 310.320353 -112.40136 
L 308.815897 -112.40136 
L 308.574806 -113.588064 
L 308.27351 -114.774767 
L 307.902219 -115.961471 
L 307.450858 -117.148174 
L 306.909306 -118.334878 
L 306.267646 -119.521582 
L 305.516387 -120.708285 
L 304.646639 -121.894989 
L 303.650225 -123.081693 
L 302.51973 -124.268396 
L 301.24849 -125.4551 
L 299.830552 -126.641804 
L 298.260639 -127.828507 
L 296.53417 -129.015211 
L 294.647385 -130.201915 
L 292.59762 -131.388618 
L 290.383757 -132.575322 
L 288.006854 -133.762026 
L 285.470929 -134.948729 
L 282.783839 -136.135433 
L 279.958163 -137.322136 
L 277.01198 -138.50884 
L 273.969422 -139.695544 
L 270.860893 -140.882247 
L 267.72285 -142.068951 
L 264.597094 -143.255655 
L 261.529545 -144.442358 
L 258.568539 -145.629062 
L 255.76272 -146.815766 
L 253.158647 -148.002469 
L 250.798272 -149.189173 
L 248.716476 -150.375877 
L 246.93883 -151.56258 
L 245.479803 -152.749284 
L 244.341556 -153.935988 
L 243.513495 -155.122691 
L 242.972682 -156.309395 
L 242.685149 -157.496099 
L 242.608125 -158.682802 
L 242.693057 -159.869506 
L 242.889279 -161.056209 
L 243.148061 -162.242913 
L 243.426718 -163.429617 
L 243.692403 -164.61632 
L 243.9252 -165.803024 
L 244.12016 -166.989728 
L 244.287985 -168.176431 
L 244.454198 -169.363135 
L 244.656784 -170.549839 
L 244.942447 -171.736542 
L 245.361825 -172.923246 
L 245.964109 -174.10995 
L 246.791644 -175.296653 
L 247.875091 -176.483357 
L 249.229711 -177.670061 
L 250.85319 -178.856764 
L 252.725263 -180.043468 
L 254.8092 -181.230171 
L 257.054951 -182.416875 
L 259.4036 -183.603579 
L 261.792599 -184.790282 
L 264.161171 -185.976986 
L 266.455304 -187.16369 
L 268.63179 -188.350393 
L 270.660946 -189.537097 
L 272.527805 -190.723801 
L 274.231783 -191.910504 
L 275.784993 -193.097208 
L 277.209529 -194.283912 
L 278.534113 -195.470615 
L 279.790557 -196.657319 
L 281.010411 -197.844023 
L 282.222145 -199.030726 
L 283.449042 -200.21743 
L 284.707925 -201.404134 
L 286.008676 -202.590837 
L 287.354448 -203.777541 
L 288.74241 -204.964244 
L 290.164824 -206.150948 
L 291.61029 -207.337652 
L 293.064989 -208.524355 
L 294.513826 -209.711059 
L 295.941399 -210.897763 
L 297.33278 -212.084466 
L 298.674098 -213.27117 
L 299.952976 -214.457874 
L 301.158826 -215.644577 
L 302.283054 -216.831281 
L 303.31918 -218.017985 
L 304.262904 -219.204688 
L 305.112095 -220.391392 
L 305.866727 -221.578096 
L 306.528745 -222.764799 
L 307.10186 -223.951503 
L 307.591286 -225.138206 
L 308.003432 -226.32491 
L 308.34556 -227.511614 
L 308.625438 -228.698317 
L 308.851001 -229.885021 
L 310.285249 -229.885021 
L 310.285249 -229.885021 
L 310.510812 -228.698317 
L 310.79069 -227.511614 
L 311.132818 -226.32491 
L 311.544964 -225.138206 
L 312.03439 -223.951503 
L 312.607505 -222.764799 
L 313.269523 -221.578096 
L 314.024155 -220.391392 
L 314.873346 -219.204688 
L 315.81707 -218.017985 
L 316.853196 -216.831281 
L 317.977424 -215.644577 
L 319.183274 -214.457874 
L 320.462152 -213.27117 
L 321.80347 -212.084466 
L 323.194851 -210.897763 
L 324.622424 -209.711059 
L 326.071261 -208.524355 
L 327.52596 -207.337652 
L 328.971426 -206.150948 
L 330.39384 -204.964244 
L 331.781802 -203.777541 
L 333.127574 -202.590837 
L 334.428325 -201.404134 
L 335.687208 -200.21743 
L 336.914105 -199.030726 
L 338.125839 -197.844023 
L 339.345693 -196.657319 
L 340.602137 -195.470615 
L 341.926721 -194.283912 
L 343.351257 -193.097208 
L 344.904467 -191.910504 
L 346.608445 -190.723801 
L 348.475304 -189.537097 
L 350.50446 -188.350393 
L 352.680946 -187.16369 
L 354.975079 -185.976986 
L 357.343651 -184.790282 
L 359.73265 -183.603579 
L 362.081299 -182.416875 
L 364.32705 -181.230171 
L 366.410987 -180.043468 
L 368.28306 -178.856764 
L 369.906539 -177.670061 
L 371.261159 -176.483357 
L 372.344606 -175.296653 
L 373.172141 -174.10995 
L 373.774425 -172.923246 
L 374.193803 -171.736542 
L 374.479466 -170.549839 
L 374.682052 -169.363135 
L 374.848265 -168.176431 
L 375.01609 -166.989728 
L 375.21105 -165.803024 
L 375.443847 -164.61632 
L 375.709532 -163.429617 
L 375.988189 -162.242913 
L 376.246971 -161.056209 
L 376.443193 -159.869506 
L 376.528125 -158.682802 
L 376.451101 -157.496099 
L 376.163568 -156.309395 
L 375.622755 -155.122691 
L 374.794694 -153.935988 
L 373.656447 -152.749284 
L 372.19742 -151.56258 
L 370.419774 -150.375877 
L 368.337978 -149.189173 
L 365.977603 -148.002469 
L 363.37353 -146.815766 
L 360.567711 -145.629062 
L 357.606705 -144.442358 
L 354.539156 -143.255655 
L 351.4134 -142.068951 
L 348.275357 -140.882247 
L 345.166828 -139.695544 
L 342.12427 -138.50884 
L 339.178087 -137.322136 
L 336.352411 -136.135433 
L 333.665321 -134.948729 
L 331.129396 -133.762026 
L 328.752493 -132.575322 
L 326.53863 -131.388618 
L 324.488865 -130.201915 
L 322.60208 -129.015211 
L 320.875611 -127.828507 
L 319.305698 -126.641804 
L 317.88776 -125.4551 
L 316.61652 -124.268396 
L 315.486025 -123.081693 
L 314.489611 -121.894989 
L 313.619863 -120.708285 
L 312.868604 -119.521582 
L 312.226944 -118.334878 
L 311.685392 -117.148174 
L 311.234031 -115.961471 
L 310.86274 -114.774767 
L 310.561444 -113.588064 
L 310.320353 -112.40136 
z
" style="stroke: #595959; stroke-width: 1.5"/>
    </defs>
    <g clip-path="url(#pc9f66982aa)">
     <use xlink:href="#mbeaa573f3f" x="0" y="270.626562" style="fill: #e44545; stroke: #595959; stroke-width: 1.5"/>
    </g>
   </g>
   <g id="matplotlib.axis_1">
    <g id="xtick_1">
     <g id="line2d_1">
      <defs>
       <path id="md35bc50e4e" d="M 0 0 
L 0 3.5 
" style="stroke: #000000; stroke-width: 0.8"/>
      </defs>
      <g>
       <use xlink:href="#md35bc50e4e" x="142.168125" y="229.199062" style="stroke: #000000; stroke-width: 0.8"/>
      </g>
     </g>
     <g id="text_1">
      <!-- 0 -->
      <g transform="translate(138.986875 243.7975) scale(0.1 -0.1)">
       <defs>
        <path id="DejaVuSans-30" d="M 2034 4250 
Q 1547 4250 1301 3770 
Q 1056 3291 1056 2328 
Q 1056 1369 1301 889 
Q 1547 409 2034 409 
Q 2525 409 2770 889 
Q 3016 1369 3016 2328 
Q 3016 3291 2770 3770 
Q 2525 4250 2034 4250 
z
M 2034 4750 
Q 2819 4750 3233 4129 
Q 3647 3509 3647 2328 
Q 3647 1150 3233 529 
Q 2819 -91 2034 -91 
Q 1250 -91 836 529 
Q 422 1150 422 2328 
Q 422 3509 836 4129 
Q 1250 4750 2034 4750 
z
" transform="scale(0.015625)"/>
       </defs>
       <use xlink:href="#DejaVuSans-30"/>
      </g>
     </g>
    </g>
    <g id="xtick_2">
     <g id="line2d_2">
      <g>
       <use xlink:href="#md35bc50e4e" x="309.568125" y="229.199062" style="stroke: #000000; stroke-width: 0.8"/>
      </g>
     </g>
     <g id="text_2">
      <!-- 1 -->
      <g transform="translate(306.386875 243.7975) scale(0.1 -0.1)">
       <defs>
        <path id="DejaVuSans-31" d="M 794 531 
L 1825 531 
L 1825 4091 
L 703 3866 
L 703 4441 
L 1819 4666 
L 2450 4666 
L 2450 531 
L 3481 531 
L 3481 0 
L 794 0 
L 794 531 
z
" transform="scale(0.015625)"/>
       </defs>
       <use xlink:href="#DejaVuSans-31"/>
      </g>
     </g>
    </g>
    <g id="text_3">
     <!-- Condition -->
     <g transform="translate(192.463906 260.515) scale(0.14 -0.14)">
      <defs>
       <path id="DejaVuSans-43" d="M 4122 4306 
L 4122 3641 
Q 3803 3938 3442 4084 
Q 3081 4231 2675 4231 
Q 1875 4231 1450 3742 
Q 1025 3253 1025 2328 
Q 1025 1406 1450 917 
Q 1875 428 2675 428 
Q 3081 428 3442 575 
Q 3803 722 4122 1019 
L 4122 359 
Q 3791 134 3420 21 
Q 3050 -91 2638 -91 
Q 1578 -91 968 557 
Q 359 1206 359 2328 
Q 359 3453 968 4101 
Q 1578 4750 2638 4750 
Q 3056 4750 3426 4639 
Q 3797 4528 4122 4306 
z
" transform="scale(0.015625)"/>
       <path id="DejaVuSans-6f" d="M 1959 3097 
Q 1497 3097 1228 2736 
Q 959 2375 959 1747 
Q 959 1119 1226 758 
Q 1494 397 1959 397 
Q 2419 397 2687 759 
Q 2956 1122 2956 1747 
Q 2956 2369 2687 2733 
Q 2419 3097 1959 3097 
z
M 1959 3584 
Q 2709 3584 3137 3096 
Q 3566 2609 3566 1747 
Q 3566 888 3137 398 
Q 2709 -91 1959 -91 
Q 1206 -91 779 398 
Q 353 888 353 1747 
Q 353 2609 779 3096 
Q 1206 3584 1959 3584 
z
" transform="scale(0.015625)"/>
       <path id="DejaVuSans-6e" d="M 3513 2113 
L 3513 0 
L 2938 0 
L 2938 2094 
Q 2938 2591 2744 2837 
Q 2550 3084 2163 3084 
Q 1697 3084 1428 2787 
Q 1159 2491 1159 1978 
L 1159 0 
L 581 0 
L 581 3500 
L 1159 3500 
L 1159 2956 
Q 1366 3272 1645 3428 
Q 1925 3584 2291 3584 
Q 2894 3584 3203 3211 
Q 3513 2838 3513 2113 
z
" transform="scale(0.015625)"/>
       <path id="DejaVuSans-64" d="M 2906 2969 
L 2906 4863 
L 3481 4863 
L 3481 0 
L 2906 0 
L 2906 525 
Q 2725 213 2448 61 
Q 2172 -91 1784 -91 
Q 1150 -91 751 415 
Q 353 922 353 1747 
Q 353 2572 751 3078 
Q 1150 3584 1784 3584 
Q 2172 3584 2448 3432 
Q 2725 3281 2906 2969 
z
M 947 1747 
Q 947 1113 1208 752 
Q 1469 391 1925 391 
Q 2381 391 2643 752 
Q 2906 1113 2906 1747 
Q 2906 2381 2643 2742 
Q 2381 3103 1925 3103 
Q 1469 3103 1208 2742 
Q 947 2381 947 1747 
z
" transform="scale(0.015625)"/>
       <path id="DejaVuSans-69" d="M 603 3500 
L 1178 3500 
L 1178 0 
L 603 0 
L 603 3500 
z
M 603 4863 
L 1178 4863 
L 1178 4134 
L 603 4134 
L 603 4863 
z
" transform="scale(0.015625)"/>
       <path id="DejaVuSans-74" d="M 1172 4494 
L 1172 3500 
L 2356 3500 
L 2356 3053 
L 1172 3053 
L 1172 1153 
Q 1172 725 1289 603 
Q 1406 481 1766 481 
L 2356 481 
L 2356 0 
L 1766 0 
Q 1100 0 847 248 
Q 594 497 594 1153 
L 594 3053 
L 172 3053 
L 172 3500 
L 594 3500 
L 594 4494 
L 1172 4494 
z
" transform="scale(0.015625)"/>
      </defs>
      <use xlink:href="#DejaVuSans-43"/>
      <use xlink:href="#DejaVuSans-6f" x="69.824219"/>
      <use xlink:href="#DejaVuSans-6e" x="131.005859"/>
      <use xlink:href="#DejaVuSans-64" x="194.384766"/>
      <use xlink:href="#DejaVuSans-69" x="257.861328"/>
      <use xlink:href="#DejaVuSans-74" x="285.644531"/>
      <use xlink:href="#DejaVuSans-69" x="324.853516"/>
      <use xlink:href="#DejaVuSans-6f" x="352.636719"/>
      <use xlink:href="#DejaVuSans-6e" x="413.818359"/>
     </g>
    </g>
   </g>
   <g id="matplotlib.axis_2">
    <g id="ytick_1">
     <g id="line2d_3">
      <defs>
       <path id="m614bace7ee" d="M 0 0 
L -3.5 0 
" style="stroke: #000000; stroke-width: 0.8"/>
      </defs>
      <g>
       <use xlink:href="#m614bace7ee" x="58.468125" y="229.199062" style="stroke: #000000; stroke-width: 0.8"/>
      </g>
     </g>
     <g id="text_4">
      <!-- 0 -->
      <g transform="translate(43.833125 233.758125) scale(0.12 -0.12)">
       <use xlink:href="#DejaVuSans-30"/>
      </g>
     </g>
    </g>
    <g id="ytick_2">
     <g id="line2d_4">
      <g>
       <use xlink:href="#m614bace7ee" x="58.468125" y="174.839062" style="stroke: #000000; stroke-width: 0.8"/>
      </g>
     </g>
     <g id="text_5">
      <!-- .25 -->
      <g transform="translate(32.384375 179.398125) scale(0.12 -0.12)">
       <defs>
        <path id="DejaVuSans-2e" d="M 684 794 
L 1344 794 
L 1344 0 
L 684 0 
L 684 794 
z
" transform="scale(0.015625)"/>
        <path id="DejaVuSans-32" d="M 1228 531 
L 3431 531 
L 3431 0 
L 469 0 
L 469 531 
Q 828 903 1448 1529 
Q 2069 2156 2228 2338 
Q 2531 2678 2651 2914 
Q 2772 3150 2772 3378 
Q 2772 3750 2511 3984 
Q 2250 4219 1831 4219 
Q 1534 4219 1204 4116 
Q 875 4013 500 3803 
L 500 4441 
Q 881 4594 1212 4672 
Q 1544 4750 1819 4750 
Q 2544 4750 2975 4387 
Q 3406 4025 3406 3419 
Q 3406 3131 3298 2873 
Q 3191 2616 2906 2266 
Q 2828 2175 2409 1742 
Q 1991 1309 1228 531 
z
" transform="scale(0.015625)"/>
        <path id="DejaVuSans-35" d="M 691 4666 
L 3169 4666 
L 3169 4134 
L 1269 4134 
L 1269 2991 
Q 1406 3038 1543 3061 
Q 1681 3084 1819 3084 
Q 2600 3084 3056 2656 
Q 3513 2228 3513 1497 
Q 3513 744 3044 326 
Q 2575 -91 1722 -91 
Q 1428 -91 1123 -41 
Q 819 9 494 109 
L 494 744 
Q 775 591 1075 516 
Q 1375 441 1709 441 
Q 2250 441 2565 725 
Q 2881 1009 2881 1497 
Q 2881 1984 2565 2268 
Q 2250 2553 1709 2553 
Q 1456 2553 1204 2497 
Q 953 2441 691 2322 
L 691 4666 
z
" transform="scale(0.015625)"/>
       </defs>
       <use xlink:href="#DejaVuSans-2e"/>
       <use xlink:href="#DejaVuSans-32" x="31.787109"/>
       <use xlink:href="#DejaVuSans-35" x="95.410156"/>
      </g>
     </g>
    </g>
    <g id="ytick_3">
     <g id="line2d_5">
      <g>
       <use xlink:href="#m614bace7ee" x="58.468125" y="120.479062" style="stroke: #000000; stroke-width: 0.8"/>
      </g>
     </g>
     <g id="text_6">
      <!-- 0.5 -->
      <g transform="translate(32.384375 125.038125) scale(0.12 -0.12)">
       <use xlink:href="#DejaVuSans-30"/>
       <use xlink:href="#DejaVuSans-2e" x="63.623047"/>
       <use xlink:href="#DejaVuSans-35" x="95.410156"/>
      </g>
     </g>
    </g>
    <g id="ytick_4">
     <g id="line2d_6">
      <g>
       <use xlink:href="#m614bace7ee" x="58.468125" y="66.119062" style="stroke: #000000; stroke-width: 0.8"/>
      </g>
     </g>
     <g id="text_7">
      <!-- 0.75 -->
      <g transform="translate(24.749375 70.678125) scale(0.12 -0.12)">
       <defs>
        <path id="DejaVuSans-37" d="M 525 4666 
L 3525 4666 
L 3525 4397 
L 1831 0 
L 1172 0 
L 2766 4134 
L 525 4134 
L 525 4666 
z
" transform="scale(0.015625)"/>
       </defs>
       <use xlink:href="#DejaVuSans-30"/>
       <use xlink:href="#DejaVuSans-2e" x="63.623047"/>
       <use xlink:href="#DejaVuSans-37" x="95.410156"/>
       <use xlink:href="#DejaVuSans-35" x="159.033203"/>
      </g>
     </g>
    </g>
    <g id="ytick_5">
     <g id="line2d_7">
      <g>
       <use xlink:href="#m614bace7ee" x="58.468125" y="11.759062" style="stroke: #000000; stroke-width: 0.8"/>
      </g>
     </g>
     <g id="text_8">
      <!-- 1 -->
      <g transform="translate(43.833125 16.318125) scale(0.12 -0.12)">
       <use xlink:href="#DejaVuSans-31"/>
      </g>
     </g>
    </g>
    <g id="text_9">
     <!-- Hit rate -->
     <g transform="translate(17.837812 146.875625) rotate(-90) scale(0.14 -0.14)">
      <defs>
       <path id="DejaVuSans-48" d="M 628 4666 
L 1259 4666 
L 1259 2753 
L 3553 2753 
L 3553 4666 
L 4184 4666 
L 4184 0 
L 3553 0 
L 3553 2222 
L 1259 2222 
L 1259 0 
L 628 0 
L 628 4666 
z
" transform="scale(0.015625)"/>
       <path id="DejaVuSans-20" transform="scale(0.015625)"/>
       <path id="DejaVuSans-72" d="M 2631 2963 
Q 2534 3019 2420 3045 
Q 2306 3072 2169 3072 
Q 1681 3072 1420 2755 
Q 1159 2438 1159 1844 
L 1159 0 
L 581 0 
L 581 3500 
L 1159 3500 
L 1159 2956 
Q 1341 3275 1631 3429 
Q 1922 3584 2338 3584 
Q 2397 3584 2469 3576 
Q 2541 3569 2628 3553 
L 2631 2963 
z
" transform="scale(0.015625)"/>
       <path id="DejaVuSans-61" d="M 2194 1759 
Q 1497 1759 1228 1600 
Q 959 1441 959 1056 
Q 959 750 1161 570 
Q 1363 391 1709 391 
Q 2188 391 2477 730 
Q 2766 1069 2766 1631 
L 2766 1759 
L 2194 1759 
z
M 3341 1997 
L 3341 0 
L 2766 0 
L 2766 531 
Q 2569 213 2275 61 
Q 1981 -91 1556 -91 
Q 1019 -91 701 211 
Q 384 513 384 1019 
Q 384 1609 779 1909 
Q 1175 2209 1959 2209 
L 2766 2209 
L 2766 2266 
Q 2766 2663 2505 2880 
Q 2244 3097 1772 3097 
Q 1472 3097 1187 3025 
Q 903 2953 641 2809 
L 641 3341 
Q 956 3463 1253 3523 
Q 1550 3584 1831 3584 
Q 2591 3584 2966 3190 
Q 3341 2797 3341 1997 
z
" transform="scale(0.015625)"/>
       <path id="DejaVuSans-65" d="M 3597 1894 
L 3597 1613 
L 953 1613 
Q 991 1019 1311 708 
Q 1631 397 2203 397 
Q 2534 397 2845 478 
Q 3156 559 3463 722 
L 3463 178 
Q 3153 47 2828 -22 
Q 2503 -91 2169 -91 
Q 1331 -91 842 396 
Q 353 884 353 1716 
Q 353 2575 817 3079 
Q 1281 3584 2069 3584 
Q 2775 3584 3186 3129 
Q 3597 2675 3597 1894 
z
M 3022 2063 
Q 3016 2534 2758 2815 
Q 2500 3097 2075 3097 
Q 1594 3097 1305 2825 
Q 1016 2553 972 2059 
L 3022 2063 
z
" transform="scale(0.015625)"/>
      </defs>
      <use xlink:href="#DejaVuSans-48"/>
      <use xlink:href="#DejaVuSans-69" x="75.195312"/>
      <use xlink:href="#DejaVuSans-74" x="102.978516"/>
      <use xlink:href="#DejaVuSans-20" x="142.1875"/>
      <use xlink:href="#DejaVuSans-72" x="173.974609"/>
      <use xlink:href="#DejaVuSans-61" x="215.087891"/>
      <use xlink:href="#DejaVuSans-74" x="276.367188"/>
      <use xlink:href="#DejaVuSans-65" x="315.576172"/>
     </g>
    </g>
   </g>
   <g id="line2d_8">
    <path d="M 142.168125 160.933016 
L 142.168125 65.479533 
" clip-path="url(#pc9f66982aa)" style="fill: none; stroke: #595959; stroke-width: 1.5; stroke-linecap: square"/>
   </g>
   <g id="line2d_9">
    <path d="M 142.168125 132.559062 
L 142.168125 99.339062 
" clip-path="url(#pc9f66982aa)" style="fill: none; stroke: #595959; stroke-width: 4.5; stroke-linecap: square"/>
   </g>
   <g id="line2d_10">
    <path d="M 309.568125 139.61704 
L 309.568125 59.349704 
" clip-path="url(#pc9f66982aa)" style="fill: none; stroke: #595959; stroke-width: 1.5; stroke-linecap: square"/>
   </g>
   <g id="line2d_11">
    <path d="M 309.568125 116.452396 
L 309.568125 92.082048 
" clip-path="url(#pc9f66982aa)" style="fill: none; stroke: #595959; stroke-width: 4.5; stroke-linecap: square"/>
   </g>
   <g id="patch_3">
    <path d="M 58.468125 229.199062 
L 58.468125 11.759062 
" style="fill: none; stroke: #000000; stroke-width: 0.8; stroke-linejoin: miter; stroke-linecap: square"/>
   </g>
   <g id="patch_4">
    <path d="M 393.268125 229.199062 
L 393.268125 11.759062 
" style="fill: none; stroke: #000000; stroke-width: 0.8; stroke-linejoin: miter; stroke-linecap: square"/>
   </g>
   <g id="patch_5">
    <path d="M 58.468125 229.199062 
L 393.268125 229.199062 
" style="fill: none; stroke: #000000; stroke-width: 0.8; stroke-linejoin: miter; stroke-linecap: square"/>
   </g>
   <g id="patch_6">
    <path d="M 58.468125 11.759062 
L 393.268125 11.759062 
" style="fill: none; stroke: #000000; stroke-width: 0.8; stroke-linejoin: miter; stroke-linecap: square"/>
   </g>
   <g id="PathCollection_1">
    <defs>
     <path id="mfb88bb3238" d="M 0 1.5 
C 0.397805 1.5 0.77937 1.341951 1.06066 1.06066 
C 1.341951 0.77937 1.5 0.397805 1.5 0 
C 1.5 -0.397805 1.341951 -0.77937 1.06066 -1.06066 
C 0.77937 -1.341951 0.397805 -1.5 0 -1.5 
C -0.397805 -1.5 -0.77937 -1.341951 -1.06066 -1.06066 
C -1.341951 -0.77937 -1.5 -0.397805 -1.5 0 
C -1.5 0.397805 -1.341951 0.77937 -1.06066 1.06066 
C -0.77937 1.341951 -0.397805 1.5 0 1.5 
z
" style="stroke: #595959"/>
    </defs>
    <g clip-path="url(#pc9f66982aa)">
     <use xlink:href="#mfb88bb3238" x="142.168125" y="115.537244" style="fill: #ffffff; stroke: #595959"/>
    </g>
   </g>
   <g id="PathCollection_2">
    <g clip-path="url(#pc9f66982aa)">
     <use xlink:href="#mfb88bb3238" x="309.568125" y="105.874883" style="fill: #ffffff; stroke: #595959"/>
    </g>
   </g>
  </g>
 </g>
 <defs>
  <clipPath id="pc9f66982aa">
   <rect x="58.468125" y="11.759062" width="334.8" height="217.44"/>
  </clipPath>
 </defs>
</svg>
