<?xml version="1.0" encoding="utf-8" standalone="no"?>
<!DOCTYPE svg PUBLIC "-//W3C//DTD SVG 1.1//EN"
  "http://www.w3.org/Graphics/SVG/1.1/DTD/svg11.dtd">
<svg xmlns:xlink="http://www.w3.org/1999/xlink" width="400.468125pt" height="270.626562pt" viewBox="0 0 400.468125 270.626562" xmlns="http://www.w3.org/2000/svg" version="1.1">
 <metadata>
  <rdf:RDF xmlns:dc="http://purl.org/dc/elements/1.1/" xmlns:cc="http://creativecommons.org/ns#" xmlns:rdf="http://www.w3.org/1999/02/22-rdf-syntax-ns#">
   <cc:Work>
    <dc:type rdf:resource="http://purl.org/dc/dcmitype/StillImage"/>
    <dc:date>2023-04-13T19:20:59.571068</dc:date>
    <dc:format>image/svg+xml</dc:format>
    <dc:creator>
     <cc:Agent>
      <dc:title>Matplotlib v3.6.3, https://matplotlib.org/</dc:title>
     </cc:Agent>
    </dc:creator>
   </cc:Work>
  </rdf:RDF>
 </metadata>
 <defs>
  <style type="text/css">*{stroke-linejoin: round; stroke-linecap: butt}</style>
 </defs>
 <g id="figure_1">
  <g id="patch_1">
   <path d="M 0 270.626562 
L 400.468125 270.626562 
L 400.468125 0 
L 0 0 
L 0 270.626562 
z
" style="fill: none"/>
  </g>
  <g id="axes_1">
   <g id="patch_2">
    <path d="M 58.468125 229.199062 
L 393.268125 229.199062 
L 393.268125 11.759062 
L 58.468125 11.759062 
z
" style="fill: #ffffff"/>
   </g>
   <g id="PolyCollection_1">
    <defs>
     <path id="mfb908bf5a7" d="M 143.449689 -84.695987 
L 140.886561 -84.695987 
L 140.516454 -86.085544 
L 140.06892 -87.475101 
L 139.536768 -88.864659 
L 138.914624 -90.254216 
L 138.199592 -91.643773 
L 137.391852 -93.03333 
L 136.495112 -94.422887 
L 135.516856 -95.812444 
L 134.468304 -97.202001 
L 133.364044 -98.591558 
L 132.221337 -99.981115 
L 131.059082 -101.370672 
L 129.896521 -102.760229 
L 128.751778 -104.149786 
L 127.640339 -105.539344 
L 126.573643 -106.928901 
L 125.557907 -108.318458 
L 124.593343 -109.708015 
L 123.673852 -111.097572 
L 122.787269 -112.487129 
L 121.916164 -113.876686 
L 121.039138 -115.266243 
L 120.13253 -116.6558 
L 119.172363 -118.045357 
L 118.136375 -119.434914 
L 117.005938 -120.824471 
L 115.767688 -122.214029 
L 114.414722 -123.603586 
L 112.947269 -124.993143 
L 111.372764 -126.3827 
L 109.705353 -127.772257 
L 107.964884 -129.161814 
L 106.175496 -130.551371 
L 104.363949 -131.940928 
L 102.557857 -133.330485 
L 100.783981 -134.720042 
L 99.06673 -136.109599 
L 97.426981 -137.499156 
L 95.88129 -138.888713 
L 94.441521 -140.278271 
L 93.114891 -141.667828 
L 91.904361 -143.057385 
L 90.809317 -144.446942 
L 89.82644 -145.836499 
L 88.950669 -147.226056 
L 88.176187 -148.615613 
L 87.497341 -150.00517 
L 86.909457 -151.394727 
L 86.409516 -152.784284 
L 85.996652 -154.173841 
L 85.672485 -155.563398 
L 85.441247 -156.952956 
L 85.309724 -158.342513 
L 85.286972 -159.73207 
L 85.383835 -161.121627 
L 85.612251 -162.511184 
L 85.984379 -163.900741 
L 86.5116 -165.290298 
L 87.203452 -166.679855 
L 88.066607 -168.069412 
L 89.103976 -169.458969 
L 90.314067 -170.848526 
L 91.690663 -172.238083 
L 93.222876 -173.62764 
L 94.8956 -175.017198 
L 96.690311 -176.406755 
L 98.58613 -177.796312 
L 100.561037 -179.185869 
L 102.593094 -180.575426 
L 104.661542 -181.964983 
L 106.747654 -183.35454 
L 108.835277 -184.744097 
L 110.911021 -186.133654 
L 112.96413 -187.523211 
L 114.986085 -188.912768 
L 116.970042 -190.302325 
L 118.910192 -191.691883 
L 120.80117 -193.08144 
L 122.637575 -194.470997 
L 124.413661 -195.860554 
L 126.123226 -197.250111 
L 127.759691 -198.639668 
L 129.316325 -200.029225 
L 130.786581 -201.418782 
L 132.164477 -202.808339 
L 133.444972 -204.197896 
L 134.62429 -205.587453 
L 135.700168 -206.97701 
L 136.671991 -208.366568 
L 137.540837 -209.756125 
L 138.30941 -211.145682 
L 138.981898 -212.535239 
L 139.563759 -213.924796 
L 140.061466 -215.314353 
L 140.482228 -216.70391 
L 140.833706 -218.093467 
L 141.123741 -219.483024 
L 141.360108 -220.872581 
L 141.550305 -222.262138 
L 142.785945 -222.262138 
L 142.785945 -222.262138 
L 142.976142 -220.872581 
L 143.212509 -219.483024 
L 143.502544 -218.093467 
L 143.854022 -216.70391 
L 144.274784 -215.314353 
L 144.772491 -213.924796 
L 145.354352 -212.535239 
L 146.02684 -211.145682 
L 146.795413 -209.756125 
L 147.664259 -208.366568 
L 148.636082 -206.97701 
L 149.71196 -205.587453 
L 150.891278 -204.197896 
L 152.171773 -202.808339 
L 153.549669 -201.418782 
L 155.019925 -200.029225 
L 156.576559 -198.639668 
L 158.213024 -197.250111 
L 159.922589 -195.860554 
L 161.698675 -194.470997 
L 163.53508 -193.08144 
L 165.426058 -191.691883 
L 167.366208 -190.302325 
L 169.350165 -188.912768 
L 171.37212 -187.523211 
L 173.425229 -186.133654 
L 175.500973 -184.744097 
L 177.588596 -183.35454 
L 179.674708 -181.964983 
L 181.743156 -180.575426 
L 183.775213 -179.185869 
L 185.75012 -177.796312 
L 187.645939 -176.406755 
L 189.44065 -175.017198 
L 191.113374 -173.62764 
L 192.645587 -172.238083 
L 194.022183 -170.848526 
L 195.232274 -169.458969 
L 196.269643 -168.069412 
L 197.132798 -166.679855 
L 197.82465 -165.290298 
L 198.351871 -163.900741 
L 198.723999 -162.511184 
L 198.952415 -161.121627 
L 199.049278 -159.73207 
L 199.026526 -158.342513 
L 198.895003 -156.952956 
L 198.663765 -155.563398 
L 198.339598 -154.173841 
L 197.926734 -152.784284 
L 197.426793 -151.394727 
L 196.838909 -150.00517 
L 196.160063 -148.615613 
L 195.385581 -147.226056 
L 194.50981 -145.836499 
L 193.526933 -144.446942 
L 192.431889 -143.057385 
L 191.221359 -141.667828 
L 189.894729 -140.278271 
L 188.45496 -138.888713 
L 186.909269 -137.499156 
L 185.26952 -136.109599 
L 183.552269 -134.720042 
L 181.778393 -133.330485 
L 179.972301 -131.940928 
L 178.160754 -130.551371 
L 176.371366 -129.161814 
L 174.630897 -127.772257 
L 172.963486 -126.3827 
L 171.388981 -124.993143 
L 169.921528 -123.603586 
L 168.568562 -122.214029 
L 167.330312 -120.824471 
L 166.199875 -119.434914 
L 165.163887 -118.045357 
L 164.20372 -116.6558 
L 163.297112 -115.266243 
L 162.420086 -113.876686 
L 161.548981 -112.487129 
L 160.662398 -111.097572 
L 159.742907 -109.708015 
L 158.778343 -108.318458 
L 157.762607 -106.928901 
L 156.695911 -105.539344 
L 155.584472 -104.149786 
L 154.439729 -102.760229 
L 153.277168 -101.370672 
L 152.114913 -99.981115 
L 150.972206 -98.591558 
L 149.867946 -97.202001 
L 148.819394 -95.812444 
L 147.841138 -94.422887 
L 146.944398 -93.03333 
L 146.136658 -91.643773 
L 145.421626 -90.254216 
L 144.799482 -88.864659 
L 144.26733 -87.475101 
L 143.819796 -86.085544 
L 143.449689 -84.695987 
z
" style="stroke: #595959; stroke-width: 1.5"/>
    </defs>
    <g clip-path="url(#pa9bdfc1fb5)">
     <use xlink:href="#mfb908bf5a7" x="0" y="270.626562" style="fill: #4595e4; stroke: #595959; stroke-width: 1.5"/>
    </g>
   </g>
   <g id="PolyCollection_2">
    <defs>
     <path id="m6d8c8acead" d="M 310.343955 -111.389882 
L 308.792295 -111.389882 
L 308.547385 -112.593972 
L 308.242352 -113.798061 
L 307.86771 -115.002151 
L 307.413798 -116.20624 
L 306.871064 -117.41033 
L 306.230351 -118.614419 
L 305.483163 -119.818509 
L 304.621893 -121.022598 
L 303.639981 -122.226688 
L 302.531992 -123.430777 
L 301.293626 -124.634867 
L 299.921644 -125.838956 
L 298.413767 -127.043046 
L 296.768554 -128.247135 
L 294.98533 -129.451225 
L 293.064177 -130.655314 
L 291.006047 -131.859404 
L 288.813013 -133.063493 
L 286.488652 -134.267583 
L 284.03856 -135.471672 
L 281.470938 -136.675762 
L 278.797216 -137.879851 
L 276.032613 -139.083941 
L 273.196582 -140.28803 
L 270.313049 -141.49212 
L 267.41038 -142.696209 
L 264.521021 -143.900299 
L 261.680797 -145.104388 
L 258.927832 -146.308478 
L 256.301149 -147.512567 
L 253.838969 -148.716657 
L 251.576819 -149.920746 
L 249.545552 -151.124836 
L 247.769431 -152.328925 
L 246.264456 -153.533014 
L 245.037105 -154.737104 
L 244.083678 -155.941193 
L 243.390396 -157.145283 
L 242.934336 -158.349372 
L 242.685244 -159.553462 
L 242.608125 -160.757551 
L 242.666442 -161.961641 
L 242.825632 -163.16573 
L 243.056581 -164.36982 
L 243.338671 -165.573909 
L 243.661989 -166.777999 
L 244.028404 -167.982088 
L 244.451287 -169.186178 
L 244.953836 -170.390267 
L 245.566131 -171.594357 
L 246.321205 -172.798446 
L 247.250587 -174.002536 
L 248.379821 -175.206625 
L 249.724516 -176.410715 
L 251.287426 -177.614804 
L 253.056918 -178.818894 
L 255.007038 -180.022983 
L 257.099189 -181.227073 
L 259.285208 -182.431162 
L 261.511481 -183.635252 
L 263.723619 -184.839341 
L 265.871136 -186.043431 
L 267.911623 -187.24752 
L 269.813956 -188.45161 
L 271.560251 -189.655699 
L 273.146417 -190.859789 
L 274.58135 -192.063878 
L 275.88494 -193.267968 
L 277.085228 -194.472057 
L 278.215068 -195.676146 
L 279.308699 -196.880236 
L 280.398582 -198.084325 
L 281.512798 -199.288415 
L 282.673173 -200.492504 
L 283.894214 -201.696594 
L 285.182837 -202.900683 
L 286.538762 -204.104773 
L 287.955432 -205.308862 
L 289.421253 -206.512952 
L 290.920992 -207.717041 
L 292.437169 -208.921131 
L 293.951323 -210.12522 
L 295.445095 -211.32931 
L 296.901084 -212.533399 
L 298.303483 -213.737489 
L 299.638523 -214.941578 
L 300.894748 -216.145668 
L 302.063168 -217.349757 
L 303.137302 -218.553847 
L 304.113158 -219.757936 
L 304.989126 -220.962026 
L 305.76583 -222.166115 
L 306.445909 -223.370205 
L 307.033756 -224.574294 
L 307.535211 -225.778384 
L 307.957222 -226.982473 
L 308.307497 -228.186563 
L 308.594155 -229.390652 
L 308.825401 -230.594742 
L 310.310849 -230.594742 
L 310.310849 -230.594742 
L 310.542095 -229.390652 
L 310.828753 -228.186563 
L 311.179028 -226.982473 
L 311.601039 -225.778384 
L 312.102494 -224.574294 
L 312.690341 -223.370205 
L 313.37042 -222.166115 
L 314.147124 -220.962026 
L 315.023092 -219.757936 
L 315.998948 -218.553847 
L 317.073082 -217.349757 
L 318.241502 -216.145668 
L 319.497727 -214.941578 
L 320.832767 -213.737489 
L 322.235166 -212.533399 
L 323.691155 -211.32931 
L 325.184927 -210.12522 
L 326.699081 -208.921131 
L 328.215258 -207.717041 
L 329.714997 -206.512952 
L 331.180818 -205.308862 
L 332.597488 -204.104773 
L 333.953413 -202.900683 
L 335.242036 -201.696594 
L 336.463077 -200.492504 
L 337.623452 -199.288415 
L 338.737668 -198.084325 
L 339.827551 -196.880236 
L 340.921182 -195.676146 
L 342.051022 -194.472057 
L 343.25131 -193.267968 
L 344.5549 -192.063878 
L 345.989833 -190.859789 
L 347.575999 -189.655699 
L 349.322294 -188.45161 
L 351.224627 -187.24752 
L 353.265114 -186.043431 
L 355.412631 -184.839341 
L 357.624769 -183.635252 
L 359.851042 -182.431162 
L 362.037061 -181.227073 
L 364.129212 -180.022983 
L 366.079332 -178.818894 
L 367.848824 -177.614804 
L 369.411734 -176.410715 
L 370.756429 -175.206625 
L 371.885663 -174.002536 
L 372.815045 -172.798446 
L 373.570119 -171.594357 
L 374.182414 -170.390267 
L 374.684963 -169.186178 
L 375.107846 -167.982088 
L 375.474261 -166.777999 
L 375.797579 -165.573909 
L 376.079669 -164.36982 
L 376.310618 -163.16573 
L 376.469808 -161.961641 
L 376.528125 -160.757551 
L 376.451006 -159.553462 
L 376.201914 -158.349372 
L 375.745854 -157.145283 
L 375.052572 -155.941193 
L 374.099145 -154.737104 
L 372.871794 -153.533014 
L 371.366819 -152.328925 
L 369.590698 -151.124836 
L 367.559431 -149.920746 
L 365.297281 -148.716657 
L 362.835101 -147.512567 
L 360.208418 -146.308478 
L 357.455453 -145.104388 
L 354.615229 -143.900299 
L 351.72587 -142.696209 
L 348.823201 -141.49212 
L 345.939668 -140.28803 
L 343.103637 -139.083941 
L 340.339034 -137.879851 
L 337.665312 -136.675762 
L 335.09769 -135.471672 
L 332.647598 -134.267583 
L 330.323237 -133.063493 
L 328.130203 -131.859404 
L 326.072073 -130.655314 
L 324.15092 -129.451225 
L 322.367696 -128.247135 
L 320.722483 -127.043046 
L 319.214606 -125.838956 
L 317.842624 -124.634867 
L 316.604258 -123.430777 
L 315.496269 -122.226688 
L 314.514357 -121.022598 
L 313.653087 -119.818509 
L 312.905899 -118.614419 
L 312.265186 -117.41033 
L 311.722452 -116.20624 
L 311.26854 -115.002151 
L 310.893898 -113.798061 
L 310.588865 -112.593972 
L 310.343955 -111.389882 
z
" style="stroke: #595959; stroke-width: 1.5"/>
    </defs>
    <g clip-path="url(#pa9bdfc1fb5)">
     <use xlink:href="#m6d8c8acead" x="0" y="270.626562" style="fill: #e44545; stroke: #595959; stroke-width: 1.5"/>
    </g>
   </g>
   <g id="matplotlib.axis_1">
    <g id="xtick_1">
     <g id="line2d_1">
      <defs>
       <path id="me7c9b31525" d="M 0 0 
L 0 3.5 
" style="stroke: #000000; stroke-width: 0.8"/>
      </defs>
      <g>
       <use xlink:href="#me7c9b31525" x="142.168125" y="229.199062" style="stroke: #000000; stroke-width: 0.8"/>
      </g>
     </g>
     <g id="text_1">
      <!-- 0 -->
      <g transform="translate(138.986875 243.7975) scale(0.1 -0.1)">
       <defs>
        <path id="DejaVuSans-30" d="M 2034 4250 
Q 1547 4250 1301 3770 
Q 1056 3291 1056 2328 
Q 1056 1369 1301 889 
Q 1547 409 2034 409 
Q 2525 409 2770 889 
Q 3016 1369 3016 2328 
Q 3016 3291 2770 3770 
Q 2525 4250 2034 4250 
z
M 2034 4750 
Q 2819 4750 3233 4129 
Q 3647 3509 3647 2328 
Q 3647 1150 3233 529 
Q 2819 -91 2034 -91 
Q 1250 -91 836 529 
Q 422 1150 422 2328 
Q 422 3509 836 4129 
Q 1250 4750 2034 4750 
z
" transform="scale(0.015625)"/>
       </defs>
       <use xlink:href="#DejaVuSans-30"/>
      </g>
     </g>
    </g>
    <g id="xtick_2">
     <g id="line2d_2">
      <g>
       <use xlink:href="#me7c9b31525" x="309.568125" y="229.199062" style="stroke: #000000; stroke-width: 0.8"/>
      </g>
     </g>
     <g id="text_2">
      <!-- 1 -->
      <g transform="translate(306.386875 243.7975) scale(0.1 -0.1)">
       <defs>
        <path id="DejaVuSans-31" d="M 794 531 
L 1825 531 
L 1825 4091 
L 703 3866 
L 703 4441 
L 1819 4666 
L 2450 4666 
L 2450 531 
L 3481 531 
L 3481 0 
L 794 0 
L 794 531 
z
" transform="scale(0.015625)"/>
       </defs>
       <use xlink:href="#DejaVuSans-31"/>
      </g>
     </g>
    </g>
    <g id="text_3">
     <!-- Condition -->
     <g transform="translate(192.463906 260.515) scale(0.14 -0.14)">
      <defs>
       <path id="DejaVuSans-43" d="M 4122 4306 
L 4122 3641 
Q 3803 3938 3442 4084 
Q 3081 4231 2675 4231 
Q 1875 4231 1450 3742 
Q 1025 3253 1025 2328 
Q 1025 1406 1450 917 
Q 1875 428 2675 428 
Q 3081 428 3442 575 
Q 3803 722 4122 1019 
L 4122 359 
Q 3791 134 3420 21 
Q 3050 -91 2638 -91 
Q 1578 -91 968 557 
Q 359 1206 359 2328 
Q 359 3453 968 4101 
Q 1578 4750 2638 4750 
Q 3056 4750 3426 4639 
Q 3797 4528 4122 4306 
z
" transform="scale(0.015625)"/>
       <path id="DejaVuSans-6f" d="M 1959 3097 
Q 1497 3097 1228 2736 
Q 959 2375 959 1747 
Q 959 1119 1226 758 
Q 1494 397 1959 397 
Q 2419 397 2687 759 
Q 2956 1122 2956 1747 
Q 2956 2369 2687 2733 
Q 2419 3097 1959 3097 
z
M 1959 3584 
Q 2709 3584 3137 3096 
Q 3566 2609 3566 1747 
Q 3566 888 3137 398 
Q 2709 -91 1959 -91 
Q 1206 -91 779 398 
Q 353 888 353 1747 
Q 353 2609 779 3096 
Q 1206 3584 1959 3584 
z
" transform="scale(0.015625)"/>
       <path id="DejaVuSans-6e" d="M 3513 2113 
L 3513 0 
L 2938 0 
L 2938 2094 
Q 2938 2591 2744 2837 
Q 2550 3084 2163 3084 
Q 1697 3084 1428 2787 
Q 1159 2491 1159 1978 
L 1159 0 
L 581 0 
L 581 3500 
L 1159 3500 
L 1159 2956 
Q 1366 3272 1645 3428 
Q 1925 3584 2291 3584 
Q 2894 3584 3203 3211 
Q 3513 2838 3513 2113 
z
" transform="scale(0.015625)"/>
       <path id="DejaVuSans-64" d="M 2906 2969 
L 2906 4863 
L 3481 4863 
L 3481 0 
L 2906 0 
L 2906 525 
Q 2725 213 2448 61 
Q 2172 -91 1784 -91 
Q 1150 -91 751 415 
Q 353 922 353 1747 
Q 353 2572 751 3078 
Q 1150 3584 1784 3584 
Q 2172 3584 2448 3432 
Q 2725 3281 2906 2969 
z
M 947 1747 
Q 947 1113 1208 752 
Q 1469 391 1925 391 
Q 2381 391 2643 752 
Q 2906 1113 2906 1747 
Q 2906 2381 2643 2742 
Q 2381 3103 1925 3103 
Q 1469 3103 1208 2742 
Q 947 2381 947 1747 
z
" transform="scale(0.015625)"/>
       <path id="DejaVuSans-69" d="M 603 3500 
L 1178 3500 
L 1178 0 
L 603 0 
L 603 3500 
z
M 603 4863 
L 1178 4863 
L 1178 4134 
L 603 4134 
L 603 4863 
z
" transform="scale(0.015625)"/>
       <path id="DejaVuSans-74" d="M 1172 4494 
L 1172 3500 
L 2356 3500 
L 2356 3053 
L 1172 3053 
L 1172 1153 
Q 1172 725 1289 603 
Q 1406 481 1766 481 
L 2356 481 
L 2356 0 
L 1766 0 
Q 1100 0 847 248 
Q 594 497 594 1153 
L 594 3053 
L 172 3053 
L 172 3500 
L 594 3500 
L 594 4494 
L 1172 4494 
z
" transform="scale(0.015625)"/>
      </defs>
      <use xlink:href="#DejaVuSans-43"/>
      <use xlink:href="#DejaVuSans-6f" x="69.824219"/>
      <use xlink:href="#DejaVuSans-6e" x="131.005859"/>
      <use xlink:href="#DejaVuSans-64" x="194.384766"/>
      <use xlink:href="#DejaVuSans-69" x="257.861328"/>
      <use xlink:href="#DejaVuSans-74" x="285.644531"/>
      <use xlink:href="#DejaVuSans-69" x="324.853516"/>
      <use xlink:href="#DejaVuSans-6f" x="352.636719"/>
      <use xlink:href="#DejaVuSans-6e" x="413.818359"/>
     </g>
    </g>
   </g>
   <g id="matplotlib.axis_2">
    <g id="ytick_1">
     <g id="line2d_3">
      <defs>
       <path id="m2b912f6e7d" d="M 0 0 
L -3.5 0 
" style="stroke: #000000; stroke-width: 0.8"/>
      </defs>
      <g>
       <use xlink:href="#m2b912f6e7d" x="58.468125" y="229.199062" style="stroke: #000000; stroke-width: 0.8"/>
      </g>
     </g>
     <g id="text_4">
      <!-- 0 -->
      <g transform="translate(43.833125 233.758125) scale(0.12 -0.12)">
       <use xlink:href="#DejaVuSans-30"/>
      </g>
     </g>
    </g>
    <g id="ytick_2">
     <g id="line2d_4">
      <g>
       <use xlink:href="#m2b912f6e7d" x="58.468125" y="174.839062" style="stroke: #000000; stroke-width: 0.8"/>
      </g>
     </g>
     <g id="text_5">
      <!-- .25 -->
      <g transform="translate(32.384375 179.398125) scale(0.12 -0.12)">
       <defs>
        <path id="DejaVuSans-2e" d="M 684 794 
L 1344 794 
L 1344 0 
L 684 0 
L 684 794 
z
" transform="scale(0.015625)"/>
        <path id="DejaVuSans-32" d="M 1228 531 
L 3431 531 
L 3431 0 
L 469 0 
L 469 531 
Q 828 903 1448 1529 
Q 2069 2156 2228 2338 
Q 2531 2678 2651 2914 
Q 2772 3150 2772 3378 
Q 2772 3750 2511 3984 
Q 2250 4219 1831 4219 
Q 1534 4219 1204 4116 
Q 875 4013 500 3803 
L 500 4441 
Q 881 4594 1212 4672 
Q 1544 4750 1819 4750 
Q 2544 4750 2975 4387 
Q 3406 4025 3406 3419 
Q 3406 3131 3298 2873 
Q 3191 2616 2906 2266 
Q 2828 2175 2409 1742 
Q 1991 1309 1228 531 
z
" transform="scale(0.015625)"/>
        <path id="DejaVuSans-35" d="M 691 4666 
L 3169 4666 
L 3169 4134 
L 1269 4134 
L 1269 2991 
Q 1406 3038 1543 3061 
Q 1681 3084 1819 3084 
Q 2600 3084 3056 2656 
Q 3513 2228 3513 1497 
Q 3513 744 3044 326 
Q 2575 -91 1722 -91 
Q 1428 -91 1123 -41 
Q 819 9 494 109 
L 494 744 
Q 775 591 1075 516 
Q 1375 441 1709 441 
Q 2250 441 2565 725 
Q 2881 1009 2881 1497 
Q 2881 1984 2565 2268 
Q 2250 2553 1709 2553 
Q 1456 2553 1204 2497 
Q 953 2441 691 2322 
L 691 4666 
z
" transform="scale(0.015625)"/>
       </defs>
       <use xlink:href="#DejaVuSans-2e"/>
       <use xlink:href="#DejaVuSans-32" x="31.787109"/>
       <use xlink:href="#DejaVuSans-35" x="95.410156"/>
      </g>
     </g>
    </g>
    <g id="ytick_3">
     <g id="line2d_5">
      <g>
       <use xlink:href="#m2b912f6e7d" x="58.468125" y="120.479062" style="stroke: #000000; stroke-width: 0.8"/>
      </g>
     </g>
     <g id="text_6">
      <!-- 0.5 -->
      <g transform="translate(32.384375 125.038125) scale(0.12 -0.12)">
       <use xlink:href="#DejaVuSans-30"/>
       <use xlink:href="#DejaVuSans-2e" x="63.623047"/>
       <use xlink:href="#DejaVuSans-35" x="95.410156"/>
      </g>
     </g>
    </g>
    <g id="ytick_4">
     <g id="line2d_6">
      <g>
       <use xlink:href="#m2b912f6e7d" x="58.468125" y="66.119062" style="stroke: #000000; stroke-width: 0.8"/>
      </g>
     </g>
     <g id="text_7">
      <!-- 0.75 -->
      <g transform="translate(24.749375 70.678125) scale(0.12 -0.12)">
       <defs>
        <path id="DejaVuSans-37" d="M 525 4666 
L 3525 4666 
L 3525 4397 
L 1831 0 
L 1172 0 
L 2766 4134 
L 525 4134 
L 525 4666 
z
" transform="scale(0.015625)"/>
       </defs>
       <use xlink:href="#DejaVuSans-30"/>
       <use xlink:href="#DejaVuSans-2e" x="63.623047"/>
       <use xlink:href="#DejaVuSans-37" x="95.410156"/>
       <use xlink:href="#DejaVuSans-35" x="159.033203"/>
      </g>
     </g>
    </g>
    <g id="ytick_5">
     <g id="line2d_7">
      <g>
       <use xlink:href="#m2b912f6e7d" x="58.468125" y="11.759062" style="stroke: #000000; stroke-width: 0.8"/>
      </g>
     </g>
     <g id="text_8">
      <!-- 1 -->
      <g transform="translate(43.833125 16.318125) scale(0.12 -0.12)">
       <use xlink:href="#DejaVuSans-31"/>
      </g>
     </g>
    </g>
    <g id="text_9">
     <!-- Hit rate -->
     <g transform="translate(17.837812 146.875625) rotate(-90) scale(0.14 -0.14)">
      <defs>
       <path id="DejaVuSans-48" d="M 628 4666 
L 1259 4666 
L 1259 2753 
L 3553 2753 
L 3553 4666 
L 4184 4666 
L 4184 0 
L 3553 0 
L 3553 2222 
L 1259 2222 
L 1259 0 
L 628 0 
L 628 4666 
z
" transform="scale(0.015625)"/>
       <path id="DejaVuSans-20" transform="scale(0.015625)"/>
       <path id="DejaVuSans-72" d="M 2631 2963 
Q 2534 3019 2420 3045 
Q 2306 3072 2169 3072 
Q 1681 3072 1420 2755 
Q 1159 2438 1159 1844 
L 1159 0 
L 581 0 
L 581 3500 
L 1159 3500 
L 1159 2956 
Q 1341 3275 1631 3429 
Q 1922 3584 2338 3584 
Q 2397 3584 2469 3576 
Q 2541 3569 2628 3553 
L 2631 2963 
z
" transform="scale(0.015625)"/>
       <path id="DejaVuSans-61" d="M 2194 1759 
Q 1497 1759 1228 1600 
Q 959 1441 959 1056 
Q 959 750 1161 570 
Q 1363 391 1709 391 
Q 2188 391 2477 730 
Q 2766 1069 2766 1631 
L 2766 1759 
L 2194 1759 
z
M 3341 1997 
L 3341 0 
L 2766 0 
L 2766 531 
Q 2569 213 2275 61 
Q 1981 -91 1556 -91 
Q 1019 -91 701 211 
Q 384 513 384 1019 
Q 384 1609 779 1909 
Q 1175 2209 1959 2209 
L 2766 2209 
L 2766 2266 
Q 2766 2663 2505 2880 
Q 2244 3097 1772 3097 
Q 1472 3097 1187 3025 
Q 903 2953 641 2809 
L 641 3341 
Q 956 3463 1253 3523 
Q 1550 3584 1831 3584 
Q 2591 3584 2966 3190 
Q 3341 2797 3341 1997 
z
" transform="scale(0.015625)"/>
       <path id="DejaVuSans-65" d="M 3597 1894 
L 3597 1613 
L 953 1613 
Q 991 1019 1311 708 
Q 1631 397 2203 397 
Q 2534 397 2845 478 
Q 3156 559 3463 722 
L 3463 178 
Q 3153 47 2828 -22 
Q 2503 -91 2169 -91 
Q 1331 -91 842 396 
Q 353 884 353 1716 
Q 353 2575 817 3079 
Q 1281 3584 2069 3584 
Q 2775 3584 3186 3129 
Q 3597 2675 3597 1894 
z
M 3022 2063 
Q 3016 2534 2758 2815 
Q 2500 3097 2075 3097 
Q 1594 3097 1305 2825 
Q 1016 2553 972 2059 
L 3022 2063 
z
" transform="scale(0.015625)"/>
      </defs>
      <use xlink:href="#DejaVuSans-48"/>
      <use xlink:href="#DejaVuSans-69" x="75.195312"/>
      <use xlink:href="#DejaVuSans-74" x="102.978516"/>
      <use xlink:href="#DejaVuSans-20" x="142.1875"/>
      <use xlink:href="#DejaVuSans-72" x="173.974609"/>
      <use xlink:href="#DejaVuSans-61" x="215.087891"/>
      <use xlink:href="#DejaVuSans-74" x="276.367188"/>
      <use xlink:href="#DejaVuSans-65" x="315.576172"/>
     </g>
    </g>
   </g>
   <g id="line2d_8">
    <path d="M 142.168125 163.234119 
L 142.168125 71.060881 
" clip-path="url(#pa9bdfc1fb5)" style="fill: none; stroke: #595959; stroke-width: 1.5; stroke-linecap: square"/>
   </g>
   <g id="line2d_9">
    <path d="M 142.168125 133.392166 
L 142.168125 98.611185 
" clip-path="url(#pa9bdfc1fb5)" style="fill: none; stroke: #595959; stroke-width: 4.5; stroke-linecap: square"/>
   </g>
   <g id="line2d_10">
    <path d="M 309.568125 140.097709 
L 309.568125 59.170792 
" clip-path="url(#pa9bdfc1fb5)" style="fill: none; stroke: #595959; stroke-width: 1.5; stroke-linecap: square"/>
   </g>
   <g id="line2d_11">
    <path d="M 309.568125 116.016612 
L 309.568125 91.129639 
" clip-path="url(#pa9bdfc1fb5)" style="fill: none; stroke: #595959; stroke-width: 4.5; stroke-linecap: square"/>
   </g>
   <g id="patch_3">
    <path d="M 58.468125 229.199062 
L 58.468125 11.759062 
" style="fill: none; stroke: #000000; stroke-width: 0.8; stroke-linejoin: miter; stroke-linecap: square"/>
   </g>
   <g id="patch_4">
    <path d="M 393.268125 229.199062 
L 393.268125 11.759062 
" style="fill: none; stroke: #000000; stroke-width: 0.8; stroke-linejoin: miter; stroke-linecap: square"/>
   </g>
   <g id="patch_5">
    <path d="M 58.468125 229.199062 
L 393.268125 229.199062 
" style="fill: none; stroke: #000000; stroke-width: 0.8; stroke-linejoin: miter; stroke-linecap: square"/>
   </g>
   <g id="patch_6">
    <path d="M 58.468125 11.759062 
L 393.268125 11.759062 
" style="fill: none; stroke: #000000; stroke-width: 0.8; stroke-linejoin: miter; stroke-linecap: square"/>
   </g>
   <g id="PathCollection_1">
    <defs>
     <path id="m4ac9ec0bd7" d="M 0 1.5 
C 0.397805 1.5 0.77937 1.341951 1.06066 1.06066 
C 1.341951 0.77937 1.5 0.397805 1.5 0 
C 1.5 -0.397805 1.341951 -0.77937 1.06066 -1.06066 
C 0.77937 -1.341951 0.397805 -1.5 0 -1.5 
C -0.397805 -1.5 -0.77937 -1.341951 -1.06066 -1.06066 
C -1.341951 -0.77937 -1.5 -0.397805 -1.5 0 
C -1.5 0.397805 -1.341951 0.77937 -1.06066 1.06066 
C -0.77937 1.341951 -0.397805 1.5 0 1.5 
z
" style="stroke: #595959"/>
    </defs>
    <g clip-path="url(#pa9bdfc1fb5)">
     <use xlink:href="#m4ac9ec0bd7" x="142.168125" y="115.647062" style="fill: #ffffff; stroke: #595959"/>
    </g>
   </g>
   <g id="PathCollection_2">
    <g clip-path="url(#pa9bdfc1fb5)">
     <use xlink:href="#m4ac9ec0bd7" x="309.568125" y="106.333338" style="fill: #ffffff; stroke: #595959"/>
    </g>
   </g>
  </g>
 </g>
 <defs>
  <clipPath id="pa9bdfc1fb5">
   <rect x="58.468125" y="11.759062" width="334.8" height="217.44"/>
  </clipPath>
 </defs>
</svg>
